<svg width="194" height="58" viewBox="0 0 194 58" fill="none" xmlns="http://www.w3.org/2000/svg">
<path d="M73.5019 34.0867H69.5857V41.0597H64.4385V17.811H74.0148C79.6065 17.811 82.9889 21.1006 82.9889 25.8484V25.9163C82.9784 31.3058 78.7596 34.0867 73.5019 34.0867ZM77.7549 25.9476C77.7549 23.6571 76.1479 22.4284 73.5703 22.4284H69.5857V29.5345H73.6703C76.2478 29.5345 77.7549 28.0084 77.7549 26.0154V25.9476Z" fill="#44978D"/>
<path d="M95.4349 41.0599V39.1321C94.1961 40.4938 92.4865 41.3886 90.0089 41.3886C86.6266 41.3886 83.8491 39.4634 83.8491 35.9416V35.8764C83.8491 31.9895 86.8291 30.1973 91.082 30.1973C92.5753 30.1846 94.0593 30.4318 95.4665 30.9277V30.6277C95.4665 28.5408 94.1514 27.3747 91.6159 27.3747C89.6749 27.3747 88.3019 27.7399 86.6607 28.3373L85.3878 24.4842C87.5702 23.4911 89.9518 23.0032 92.3524 23.0573C97.9125 23.0573 100.356 25.9268 100.356 30.7295V41.0573L95.4349 41.0599ZM95.5348 33.886C94.5118 33.4385 93.4046 33.2117 92.2866 33.2208C90.1089 33.2208 88.7701 34.0868 88.7701 35.6808V35.7408C88.7701 37.1025 89.909 37.9008 91.5502 37.9008C93.9173 37.9008 95.5348 36.5964 95.5348 34.7703V33.886Z" fill="#44978D"/>
<path d="M102.839 21.2988V16.8145H108.196V21.2988H102.839ZM102.973 41.0597V23.2579H108.062V41.0597H102.973Z" fill="#44978D"/>
<path d="M122.722 28.2065C119.34 28.2065 117.265 30.2334 117.265 34.483V41.0595H112.173V23.2578H117.265V26.8447C118.301 24.3873 119.976 22.7934 122.988 22.9317V28.2117L122.722 28.2065Z" fill="#44978D"/>
<path d="M137.32 22.5276V41.0493H132.165V22.5276H125.032V17.811H144.453V22.5276H137.32Z" fill="#44978D"/>
<path d="M156.404 28.2065C153.024 28.2065 150.947 30.2334 150.947 34.483V41.0595H145.857V23.2578H150.947V26.8447C151.999 24.3873 153.658 22.7934 156.672 22.9317V28.2117L156.404 28.2065Z" fill="#44978D"/>
<path d="M174.518 33.9143H162.03C162.532 36.2047 164.134 37.4021 166.417 37.4021C168.124 37.4021 169.363 36.8804 170.77 35.576L173.681 38.1351C172.009 40.1934 169.597 41.456 166.349 41.456C160.959 41.456 156.975 37.7021 156.975 32.2551V32.1899C156.975 27.1082 160.623 22.9238 165.846 22.9238C171.84 22.9238 174.586 27.5412 174.586 32.589V32.6543C174.586 33.1551 174.552 33.4551 174.518 33.9143ZM165.838 26.9725C163.734 26.9725 162.356 28.4673 161.956 30.7577H169.644C169.329 28.5064 167.99 26.9777 165.846 26.9777L165.838 26.9725Z" fill="#44978D"/>
<path d="M193.705 33.9143H181.217C181.719 36.2047 183.321 37.4021 185.604 37.4021C187.311 37.4021 188.55 36.8804 189.957 35.576L192.871 38.1351C191.196 40.1934 188.786 41.456 185.538 41.456C180.146 41.456 176.162 37.7021 176.162 32.2551V32.1899C176.162 27.1082 179.812 22.9238 185.036 22.9238C191.027 22.9238 193.773 27.5412 193.773 32.589V32.6543C193.77 33.1551 193.739 33.4551 193.705 33.9143ZM185.025 26.9725C182.921 26.9725 181.543 28.4673 181.14 30.7577H188.807C188.515 28.5064 187.174 26.9777 185.033 26.9777L185.025 26.9725Z" fill="#44978D"/>
<path d="M35.24 29.2622C35.0113 27.9221 35.1884 26.5449 35.7488 25.3047C36.3092 24.0644 37.2279 23.0169 38.3885 22.2944C39.5492 21.572 40.8998 21.2071 42.2695 21.246C43.6392 21.2848 44.9666 21.7256 46.0837 22.5127C47.2009 23.2997 48.0577 24.3976 48.5457 25.6676C49.0338 26.9376 49.1313 28.3226 48.8258 29.6475C48.5203 30.9724 47.8255 32.1777 46.8294 33.111C45.8333 34.0443 44.5805 34.6637 43.2295 34.8908C41.4176 35.1948 39.5581 34.7727 38.0598 33.7172C36.5616 32.6617 35.5473 31.0592 35.24 29.2622Z" fill="#44978D"/>
<path d="M13.5857 6.58891C13.3972 5.48836 13.5421 4.35709 14.0018 3.33817C14.4616 2.31926 15.2157 1.45847 16.1688 0.864671C17.1218 0.270876 18.231 -0.0292518 19.3561 0.00224811C20.4811 0.033748 21.5715 0.39546 22.4892 1.04164C23.407 1.68781 24.111 2.58943 24.5121 3.63245C24.9132 4.67547 24.9934 5.81304 24.7426 6.90129C24.4918 7.98954 23.9213 8.97958 23.1032 9.74619C22.285 10.5128 21.2561 11.0216 20.1464 11.2081C18.6589 11.4582 17.1321 11.1121 15.9018 10.2458C14.6715 9.37962 13.8384 8.06423 13.5857 6.58891Z" fill="#80C04A"/>
<path d="M0.845239 32.9044C0.686448 31.9747 0.809166 31.0192 1.19788 30.1587C1.58659 29.2982 2.22383 28.5713 3.02904 28.07C3.83424 27.5687 4.77123 27.3154 5.72154 27.3423C6.67184 27.3691 7.59278 27.6749 8.3679 28.2208C9.14301 28.7668 9.7375 29.5285 10.0762 30.4096C10.4149 31.2906 10.4825 32.2515 10.2706 33.1708C10.0587 34.09 9.57677 34.9262 8.8857 35.5738C8.19463 36.2213 7.32549 36.6511 6.38817 36.8087C5.13122 37.0194 3.84134 36.7265 2.80198 35.9944C1.76263 35.2623 1.05883 34.1509 0.845239 32.9044Z" fill="#80C04A"/>
<path d="M38.5061 16.195C38.3661 15.3755 38.4741 14.5332 38.8165 13.7746C39.159 13.016 39.7205 12.3751 40.4301 11.9329C41.1396 11.4907 41.9655 11.267 42.8031 11.2902C43.6408 11.3134 44.4528 11.5823 45.1364 12.0631C45.82 12.5439 46.3446 13.2148 46.6439 13.9912C46.9432 14.7676 47.0037 15.6145 46.8178 16.425C46.6319 17.2355 46.2079 17.9731 45.5995 18.5446C44.991 19.1162 44.2254 19.496 43.3994 19.6361C42.2918 19.8221 41.1552 19.5644 40.2391 18.9196C39.323 18.2749 38.7025 17.2958 38.5138 16.1975" fill="#80C04A"/>
<path d="M28.4583 19.7442C28.337 19.034 28.4308 18.3041 28.7278 17.6467C29.0248 16.9894 29.5116 16.4341 30.1267 16.0511C30.7418 15.6681 31.4576 15.4747 32.1836 15.4951C32.9095 15.5156 33.6131 15.7491 34.2053 16.1661C34.7974 16.5832 35.2517 17.165 35.5105 17.838C35.7693 18.511 35.8211 19.2451 35.6594 19.9473C35.4977 20.6496 35.1296 21.2885 34.6018 21.7833C34.074 22.2781 33.4102 22.6066 32.6942 22.7272C32.2185 22.8074 31.7317 22.7937 31.2613 22.6872C30.791 22.5806 30.3465 22.3832 29.9531 22.1062C29.5598 21.8292 29.2253 21.478 28.9688 21.0727C28.7123 20.6675 28.5388 20.216 28.4583 19.7442Z" fill="#80C04A"/>
<path d="M17.9283 16.9475C17.5882 14.9563 19.0019 13.0608 21.0855 12.7084C23.1692 12.356 25.1463 13.6876 25.4737 15.6788C25.8011 17.67 24.4001 19.5655 22.319 19.9154C20.2379 20.2653 18.2582 18.9387 17.9283 16.9475Z" fill="#44978D"/>
<path d="M7.05317 42.0171C6.93931 41.352 7.02684 40.6684 7.30469 40.0527C7.58253 39.4369 8.03821 38.9167 8.61411 38.5579C9.19001 38.199 9.86027 38.0176 10.5401 38.0365C11.22 38.0554 11.8789 38.2739 12.4336 38.6643C12.9883 39.0546 13.4138 39.5993 13.6564 40.2296C13.899 40.8598 13.9477 41.5472 13.7964 42.2049C13.6451 42.8626 13.3005 43.461 12.8064 43.9244C12.3122 44.3879 11.6905 44.6957 11.02 44.8087C10.1208 44.9597 9.19797 44.7505 8.45419 44.227C7.7104 43.7036 7.2065 42.9087 7.05317 42.0171Z" fill="#44978D"/>
<path d="M4.65968 6.18873C4.55139 5.55608 4.63467 4.90578 4.89898 4.32007C5.16329 3.73435 5.59676 3.23952 6.1446 2.89814C6.69243 2.55676 7.33002 2.38415 7.97675 2.40216C8.62348 2.42016 9.2503 2.62795 9.77797 2.99927C10.3056 3.37059 10.7105 3.88876 10.9412 4.48825C11.172 5.08775 11.2184 5.74165 11.0745 6.36729C10.9306 6.99292 10.6029 7.56219 10.1328 8.00312C9.66278 8.44405 9.07146 8.73684 8.43364 8.84446C8.00998 8.91628 7.5762 8.90453 7.15713 8.80989C6.73805 8.71524 6.34191 8.53955 5.99137 8.29288C5.64083 8.04621 5.34278 7.73339 5.11427 7.37233C4.88576 7.01128 4.73128 6.60907 4.65968 6.18873Z" fill="#BFD630"/>
<path d="M33.3845 39.9102C33.2724 39.2558 33.3585 38.5832 33.6318 37.9774C33.9052 37.3716 34.3535 36.8599 34.9202 36.5068C35.4868 36.1537 36.1463 35.9753 36.8152 35.994C37.4841 36.0127 38.1324 36.2278 38.678 36.6119C39.2237 36.9961 39.6423 37.5321 39.8807 38.1523C40.1192 38.7724 40.167 39.4487 40.0179 40.0958C39.8688 40.7428 39.5296 41.3314 39.0432 41.7872C38.5568 42.2431 37.9451 42.5456 37.2853 42.6565C36.4009 42.8053 35.4931 42.5995 34.7616 42.0845C34.03 41.5695 33.5347 40.7874 33.3845 39.9102Z" fill="#80C04A"/>
<path d="M26.5904 7.97844C26.3626 6.64628 26.5382 5.27706 27.095 4.04391C27.6518 2.81076 28.5648 1.76905 29.7185 1.05051C30.8722 0.331978 32.2148 -0.0311199 33.5765 0.00713409C34.9382 0.0453881 36.2579 0.483275 37.3688 1.26543C38.4796 2.04758 39.3316 3.13887 39.8172 4.4013C40.3027 5.66374 40.3999 7.04062 40.0965 8.35786C39.7931 9.67509 39.1027 10.8735 38.1127 11.8016C37.1226 12.7297 35.8773 13.3457 34.5342 13.5718C33.6423 13.7223 32.7292 13.697 31.8471 13.4973C30.9651 13.2976 30.1313 12.9275 29.3936 12.408C28.6558 11.8885 28.0285 11.23 27.5475 10.4699C27.0665 9.70986 26.7413 8.86324 26.5904 7.97844Z" fill="#BFD630"/>
<path d="M12.7431 33.8686C12.3921 31.8168 12.6625 29.7079 13.52 27.8085C14.3775 25.9091 15.7836 24.3045 17.5605 23.1978C19.3375 22.091 21.4054 21.5317 23.5028 21.5906C25.6002 21.6496 27.6328 22.3241 29.3438 23.5288C31.0547 24.7336 32.3669 26.4145 33.1146 28.359C33.8624 30.3035 34.0119 32.4243 33.5444 34.4531C33.0769 36.4819 32.0133 38.3277 30.4882 39.7569C28.963 41.1862 27.0448 42.1348 24.9761 42.4827C22.2022 42.9493 19.3551 42.3039 17.061 40.6885C14.7669 39.073 13.2137 36.6199 12.7431 33.8686Z" fill="#BFD630"/>
<path d="M0.111745 19.3338C-0.588736 15.2356 2.08375 11.3691 6.09121 10.697C10.0987 10.0249 13.898 12.8014 14.5985 16.8996C15.299 20.9977 12.6163 24.8642 8.62918 25.5363C4.64203 26.2085 0.812226 23.4319 0.111745 19.3338Z" fill="#44978D"/>
<path d="M25.5142 57.8987H20.8926L21.6793 45.4004H24.7275L25.5142 57.8987Z" fill="#664E39"/>
</svg>
